<?xml version="1.0" encoding="utf-8"?>
<!-- Generator: Adobe Illustrator 25.2.1, SVG Export Plug-In . SVG Version: 6.00 Build 0)  -->
<svg version="1.1" id="Layer_1" xmlns="http://www.w3.org/2000/svg" xmlns:xlink="http://www.w3.org/1999/xlink" x="0px" y="0px"
	 viewBox="0 0 980.5 643" style="enable-background:new 0 0 980.5 643;" xml:space="preserve">
<style type="text/css">
	.st0{fill:#1A1A1A;}
	.st1{display:none;}
	.st2{display:inline;}
	.st3{display:inline;fill:#1A1A1A;}
	.st4{display:inline;fill:#C1272D;}
	.st5{display:inline;fill:#009245;}
	.st6{display:inline;opacity:8.000000e-02;fill:#FFFFFF;enable-background:new    ;}
	.st7{display:inline;opacity:0.1;enable-background:new    ;}
	.st8{display:none;fill:#C1272D;}
	.st9{display:none;fill:#009245;}
	.st10{display:none;fill:none;}
</style>
<g>
	<circle cx="424.4" cy="192.5" r="72"/>
	<circle class="st0" cx="424.4" cy="192.5" r="61.7"/>
</g>
<g>
	<circle cx="579.5" cy="126.5" r="72"/>
	<circle class="st0" cx="579.5" cy="126.5" r="61.7"/>
</g>
<g>
	<circle cx="747.5" cy="154.5" r="72"/>
	<circle class="st0" cx="747.5" cy="154.5" r="61.7"/>
</g>
<g>
	<circle cx="908.5" cy="225.5" r="72"/>
	
		<ellipse transform="matrix(0.3417 -0.9398 0.9398 0.3417 386.0285 1002.2034)" class="st0" cx="908.4" cy="225.5" rx="61.7" ry="61.7"/>
</g>
<g>
	<ellipse transform="matrix(0.7071 -0.7071 0.7071 0.7071 -31.1362 739.8196)" cx="877.5" cy="407.5" rx="72" ry="72"/>
	<circle class="st0" cx="877.5" cy="407.5" r="61.7"/>
</g>
<g>
	<circle cx="716.5" cy="336.5" r="72"/>
	<circle class="st0" cx="716.5" cy="336.5" r="61.7"/>
</g>
<g>
	<circle cx="547.5" cy="308.5" r="72"/>
	<circle class="st0" cx="547.5" cy="308.5" r="61.7"/>
</g>
<circle cx="391.4" cy="373.5" r="72"/>
<circle class="st0" cx="391.4" cy="373.5" r="61.7"/>
<g>
	<g>
		<g class="st1">
			<path class="st2" d="M162.4,251.5c-31.5,0-57,25.5-57,57c0,15.5,6.2,29.5,16.2,39.8l80.6-80.6C192,257.7,177.9,251.5,162.4,251.5
				z"/>
			<path class="st2" d="M202.2,267.7l-80.6,80.6c10.4,10.6,24.8,17.2,40.8,17.2c31.5,0,57-25.5,57-57
				C219.4,292.5,212.9,278.1,202.2,267.7z"/>
		</g>
	</g>
	<g id="Top_Right_2_" class="st1">
		<path class="st3" d="M163.8,413c2.9,0,5.2-2.4,5.1-5.3l-1.2-99.1c0-2.9-2.3-5.2-5.1-5.3c-2.9,0-5.2,2.3-5.3,5.1l1.2,99.4
			C158.5,410.7,160.9,413,163.8,413z"/>
		<circle class="st4" cx="163.1" cy="365.8" r="53"/>
		<circle class="st4" cx="162.4" cy="308.5" r="53"/>
		<circle class="st5" cx="170.4" cy="337.9" r="63.5"/>
		<ellipse transform="matrix(0.9564 -0.292 0.292 0.9564 -110.6631 68.1731)" class="st6" cx="173" cy="404.8" rx="12.4" ry="5.2"/>
		<path class="st7" d="M118.4,359.5c19.7-29,59.3-36.5,88.2-16.7c2.2,1.5,4.3,3.2,6.3,4.9c-3.7-10.1-10.4-19.2-20-25.7
			c-24.2-16.5-57.2-10.2-73.6,14c-8,11.7-10.6,25.6-8.5,38.6C112.8,369.3,115.3,364.3,118.4,359.5z"/>
	</g>
	<g id="Top_Right_3_" class="st1">
		<path class="st3" d="M237.2,381.5c2-2.1,2-5.3-0.1-7.4l-71-69.2c-2-2.1-5.3-2.1-7.4-0.1s-2.1,5.3-0.1,7.4l71.1,69.4
			C231.9,383.5,235.2,383.5,237.2,381.5z"/>
		<circle class="st4" cx="203.4" cy="348.5" r="53"/>
		<circle class="st4" cx="162.4" cy="308.5" r="53"/>
		<circle class="st5" cx="188.9" cy="323.7" r="63.5"/>
		
			<ellipse transform="matrix(0.4698 -0.8828 0.8828 0.4698 -199.5962 405.8423)" class="st6" cx="238.1" cy="369.1" rx="12.4" ry="5.2"/>
		<path class="st7" d="M167.4,375.7c-6.5-34.5,16.1-67.7,50.6-74.2c2.7-0.5,5.3-0.8,7.9-1c-9.7-4.6-20.9-6.2-32.3-4.1
			c-28.8,5.4-47.7,33.2-42.2,61.9c2.6,14,10.6,25.6,21.3,33.2C170.2,386.7,168.4,381.3,167.4,375.7z"/>
	</g>
	<g id="Top_Right_4_" class="st1">
		<path class="st3" d="M58,309.8c0,2.9,2.4,5.2,5.3,5.1l99.1-1.2c2.9,0,5.2-2.3,5.3-5.1c0-2.9-2.3-5.2-5.1-5.3l-99.4,1.2
			C60.3,304.6,58,306.9,58,309.8z"/>
		<circle class="st4" cx="105.3" cy="309.2" r="53"/>
		<circle class="st4" cx="162.4" cy="308.5" r="53"/>
		<circle class="st5" cx="133" cy="316.4" r="63.5"/>
		<ellipse transform="matrix(0.9564 -0.292 0.292 0.9564 -90.3154 33.2578)" class="st6" cx="66.3" cy="319.2" rx="5.2" ry="12.4"/>
		<path class="st7" d="M111.5,264.5c29,19.7,36.5,59.3,16.7,88.2c-1.5,2.2-3.2,4.3-4.9,6.3c10.1-3.7,19.2-10.4,25.7-20
			c16.5-24.2,10.2-57.2-14-73.6c-11.7-8-25.6-10.6-38.6-8.5C101.7,258.7,106.8,261.2,111.5,264.5z"/>
	</g>
	<g id="Top_Right_5_" class="st1">
		<path class="st3" d="M87.8,235.5c-2,2.1-2,5.3,0.1,7.4l71,69.2c2,2.1,5.3,2.1,7.4,0.1s2.1-5.3,0.1-7.4l-71.1-69.4
			C93,233.4,89.8,233.5,87.8,235.5z"/>
		<circle class="st4" cx="121.4" cy="268.5" r="53"/>
		<circle class="st4" cx="162.4" cy="308.5" r="53"/>
		<circle class="st5" cx="136" cy="293.3" r="63.5"/>
		
			<ellipse transform="matrix(0.4698 -0.8828 0.8828 0.4698 -172.8075 208.2281)" class="st6" cx="86.9" cy="248" rx="12.4" ry="5.2"/>
		<path class="st7" d="M157.5,241.3c6.5,34.5-16.1,67.7-50.6,74.2c-2.7,0.5-5.3,0.8-7.9,1c9.7,4.6,20.9,6.2,32.3,4.1
			c28.8-5.4,47.7-33.2,42.2-61.9c-2.6-14-10.6-25.6-21.3-33.2C154.6,230.3,156.4,235.7,157.5,241.3z"/>
	</g>
	<g id="Top_Right_6_" class="st1">
		<path class="st3" d="M161.1,204c-2.9,0-5.2,2.4-5.1,5.3l1.2,99.1c0,2.9,2.3,5.2,5.1,5.3c2.9,0,5.2-2.3,5.3-5.1l-1.2-99.4
			C166.4,206.3,164,204,161.1,204z"/>
		<circle class="st4" cx="161.8" cy="251.2" r="53"/>
		<circle class="st4" cx="162.4" cy="308.5" r="53"/>
		<circle class="st5" cx="154.5" cy="279.1" r="63.5"/>
		<ellipse transform="matrix(0.9564 -0.292 0.292 0.9564 -55.372 53.5948)" class="st6" cx="151.9" cy="212.3" rx="12.4" ry="5.2"/>
		<path class="st7" d="M206.5,257.5c-19.7,29-59.3,36.5-88.2,16.7c-2.2-1.5-4.3-3.2-6.3-4.9c3.7,10.1,10.4,19.2,20,25.7
			c24.2,16.5,57.2,10.2,73.6-14c8-11.7,10.6-25.6,8.5-38.6C212.2,247.7,209.8,252.7,206.5,257.5z"/>
	</g>
	<g id="Top_Right_7_" class="st1">
		<path class="st3" d="M266.9,307.2c0-2.9-2.4-5.2-5.3-5.1l-99.1,1.2c-2.9,0-5.2,2.3-5.3,5.1c0,2.9,2.3,5.2,5.1,5.3l99.4-1.2
			C264.6,312.4,266.9,310.1,266.9,307.2z"/>
		<circle class="st4" cx="219.8" cy="307.8" r="53"/>
		<circle class="st4" cx="162.4" cy="308.5" r="53"/>
		<circle class="st5" cx="191.9" cy="300.6" r="63.5"/>
		
			<ellipse transform="matrix(0.9564 -0.292 0.292 0.9564 -75.7105 88.5362)" class="st6" cx="258.7" cy="297.9" rx="5.2" ry="12.4"/>
		<path class="st7" d="M213.4,352.5c-29-19.7-36.5-59.3-16.7-88.2c1.5-2.2,3.2-4.3,4.9-6.3c-10.1,3.7-19.2,10.4-25.7,20
			c-16.5,24.2-10.2,57.2,14,73.6c11.7,8,25.6,10.6,38.6,8.5C223.2,358.3,218.2,355.8,213.4,352.5z"/>
	</g>
	<g id="Top_Right_1_" class="st1">
		<path class="st3" d="M89.5,383.3c2.1,2,5.3,2,7.4-0.1l69.2-71c2.1-2,2.1-5.3,0.1-7.4s-5.3-2.1-7.4-0.1l-69.4,71.1
			C87.5,378,87.5,381.3,89.5,383.3z"/>
		<circle class="st4" cx="122.4" cy="349.5" r="53"/>
		<circle class="st4" cx="162.4" cy="308.5" r="53"/>
		<circle class="st5" cx="147.2" cy="334.9" r="63.5"/>
		
			<ellipse transform="matrix(0.4698 -0.8828 0.8828 0.4698 -285.0882 293.6222)" class="st6" cx="101.9" cy="384.1" rx="5.2" ry="12.4"/>
		<path class="st7" d="M95.3,313.4c34.5-6.5,67.7,16.1,74.2,50.6c0.5,2.7,0.8,5.3,1,7.9c4.6-9.7,6.2-20.9,4.1-32.3
			c-5.4-28.8-33.2-47.7-61.9-42.2C98.7,300,87,308,79.5,318.7C84.3,316.3,89.7,314.5,95.3,313.4z"/>
	</g>
	<g id="Top_Right" class="st1">
		<path class="st3" d="M235.4,233.7c-2.1-2-5.3-2-7.4,0.1l-69.2,71c-2.1,2-2.1,5.3-0.1,7.4s5.3,2.1,7.4,0.1l69.4-71.1
			C237.5,239,237.4,235.7,235.4,233.7z"/>
		<circle class="st4" cx="202.4" cy="267.5" r="53"/>
		<circle class="st4" cx="162.4" cy="308.5" r="53"/>
		<circle class="st5" cx="177.8" cy="282.1" r="63.5"/>
		
			<ellipse transform="matrix(0.4698 -0.8828 0.8828 0.4698 -87.3171 320.3907)" class="st6" cx="223.1" cy="232.9" rx="5.2" ry="12.4"/>
		<path class="st7" d="M229.6,303.6c-34.5,6.5-67.7-16.1-74.2-50.6c-0.5-2.7-0.8-5.3-1-7.9c-4.6,9.7-6.2,20.9-4.1,32.3
			c5.4,28.8,33.2,47.7,61.9,42.2c14-2.6,25.6-10.6,33.2-21.3C240.6,300.7,235.4,302.5,229.6,303.6z"/>
	</g>
	<g>
		<circle class="st8" cx="162.4" cy="308.5" r="53"/>
		<circle class="st9" cx="177.8" cy="282.1" r="63.5"/>
	</g>
	<g>
		<line class="st10" x1="111.7" y1="402" x2="111.7" y2="214"/>
		<line class="st10" x1="17.7" y1="309" x2="205.6" y2="309"/>
		<line class="st10" x1="45" y1="242" x2="177.9" y2="375"/>
	</g>
</g>
<circle cx="295.4" cy="517.5" r="72"/>
<circle class="st0" cx="295.4" cy="517.5" r="61.7"/>
<circle cx="270.4" cy="274.8" r="49.7"/>
<circle class="st0" cx="270.4" cy="274.8" r="42.5"/>
<circle cx="161.4" cy="236.5" r="49.7"/>
<circle class="st0" cx="161.4" cy="236.5" r="42.5"/>
<circle cx="49.7" cy="232.3" r="49.7"/>
<circle class="st0" cx="49.7" cy="232.3" r="42.5"/>
</svg>
